<svg width="415" height="97" viewBox="0 0 415 97" fill="none" xmlns="http://www.w3.org/2000/svg">
<path d="M0.853125 25.992H22.8371L26.5811 48.744V81H4.59713V45.384L0.853125 25.992ZM45.1091 24.36C50.2291 24.36 54.5811 25.416 58.1651 27.528C61.7491 29.64 64.4691 32.648 66.3251 36.552C68.2451 40.392 69.2051 44.904 69.2051 50.088V81H47.2211V53.256C47.2211 49.672 46.3571 46.92 44.6291 45C42.9651 43.08 40.5651 42.12 37.4291 42.12C35.1891 42.12 33.2371 42.632 31.5731 43.656C29.9731 44.68 28.7251 46.12 27.8291 47.976C26.9971 49.832 26.5811 52.072 26.5811 54.696L19.9571 51.24C20.7891 45.288 22.3891 40.328 24.7571 36.36C27.1891 32.392 30.1651 29.416 33.6851 27.432C37.2051 25.384 41.0131 24.36 45.1091 24.36ZM87.6371 24.36C92.7571 24.36 97.1091 25.416 100.693 27.528C104.341 29.64 107.093 32.648 108.949 36.552C110.869 40.392 111.829 44.904 111.829 50.088V81H89.8451V53.256C89.8451 49.672 88.9811 46.92 87.2531 45C85.5891 43.08 83.1891 42.12 80.0531 42.12C77.8131 42.12 75.8611 42.632 74.1971 43.656C72.5971 44.68 71.3491 46.12 70.4531 47.976C69.6211 49.832 69.2051 52.072 69.2051 54.696L62.5811 51.24C63.4131 45.288 65.0131 40.328 67.3811 36.36C69.8131 32.392 72.7571 29.416 76.2131 27.432C79.7331 25.384 83.5411 24.36 87.6371 24.36ZM170.157 81L167.565 61.416L170.253 53.544L167.565 45.768L170.157 25.992H193.005L189.357 53.448L193.005 81H170.157ZM175.053 53.544C174.285 59.368 172.589 64.488 169.965 68.904C167.405 73.256 164.077 76.648 159.981 79.08C155.949 81.448 151.309 82.632 146.061 82.632C140.749 82.632 136.045 81.416 131.949 78.984C127.853 76.552 124.653 73.16 122.349 68.808C120.109 64.392 118.989 59.304 118.989 53.544C118.989 47.656 120.109 42.536 122.349 38.184C124.653 33.768 127.853 30.376 131.949 28.008C136.045 25.576 140.749 24.36 146.061 24.36C151.309 24.36 155.949 25.544 159.981 27.912C164.077 30.28 167.437 33.672 170.061 38.088C172.685 42.44 174.349 47.592 175.053 53.544ZM141.165 53.544C141.165 55.976 141.645 58.12 142.605 59.976C143.629 61.832 145.037 63.304 146.829 64.392C148.621 65.48 150.669 66.024 152.973 66.024C155.341 66.024 157.613 65.48 159.789 64.392C161.965 63.304 163.885 61.832 165.549 59.976C167.213 58.12 168.429 55.976 169.197 53.544C168.429 51.112 167.213 48.968 165.549 47.112C163.885 45.192 161.965 43.688 159.789 42.6C157.613 41.512 155.341 40.968 152.973 40.968C150.669 40.968 148.621 41.512 146.829 42.6C145.037 43.688 143.629 45.192 142.605 47.112C141.645 48.968 141.165 51.112 141.165 53.544ZM201.633 24.936L212.673 27.24L223.617 24.936V96.84H201.633V24.936ZM212.673 21.288C208.961 21.288 205.953 20.36 203.649 18.504C201.345 16.648 200.193 14.152 200.193 11.016C200.193 7.816 201.345 5.288 203.649 3.432C205.953 1.576 208.961 0.647999 212.673 0.647999C216.513 0.647999 219.553 1.576 221.793 3.432C224.097 5.288 225.249 7.816 225.249 11.016C225.249 14.152 224.097 16.648 221.793 18.504C219.553 20.36 216.513 21.288 212.673 21.288ZM299.743 62.664C299.743 67.08 298.367 70.792 295.615 73.8C292.927 76.744 289.087 78.952 284.095 80.424C279.167 81.896 273.311 82.632 266.527 82.632C259.551 82.632 253.407 81.8 248.095 80.136C242.847 78.472 238.719 76.104 235.711 73.032C232.767 69.96 231.199 66.408 231.007 62.376H253.279C253.727 63.72 254.559 64.872 255.775 65.832C256.991 66.792 258.559 67.528 260.479 68.04C262.463 68.552 264.863 68.808 267.679 68.808C271.135 68.808 273.759 68.456 275.551 67.752C277.407 66.984 278.335 65.896 278.335 64.488C278.335 63.272 277.599 62.408 276.127 61.896C274.719 61.32 272.319 60.904 268.927 60.648L259.615 59.976C252.895 59.528 247.551 58.6 243.583 57.192C239.615 55.784 236.767 53.928 235.039 51.624C233.311 49.256 232.447 46.472 232.447 43.272C232.447 39.048 233.791 35.528 236.479 32.712C239.167 29.896 242.911 27.816 247.711 26.472C252.511 25.064 258.143 24.36 264.607 24.36C270.943 24.36 276.575 25.16 281.503 26.76C286.431 28.36 290.367 30.632 293.311 33.576C296.319 36.456 298.047 39.816 298.495 43.656H276.223C275.903 42.44 275.231 41.384 274.207 40.488C273.183 39.528 271.807 38.792 270.079 38.28C268.351 37.704 266.175 37.416 263.551 37.416C260.351 37.416 257.951 37.8 256.351 38.568C254.751 39.336 253.951 40.392 253.951 41.736C253.951 42.824 254.431 43.656 255.391 44.232C256.415 44.744 258.303 45.096 261.055 45.288L273.439 46.152C280.095 46.536 285.311 47.432 289.087 48.84C292.927 50.184 295.647 52.008 297.247 54.312C298.911 56.616 299.743 59.4 299.743 62.664ZM302.029 42.12V32.616L312.973 27.624L322.573 11.112H335.053V25.992H357.325V42.12H335.053V55.848C335.053 59.56 335.757 62.184 337.165 63.72C338.637 65.256 341.485 66.024 345.709 66.024C348.333 66.024 350.669 65.832 352.717 65.448C354.765 65 356.621 64.456 358.285 63.816V80.04C356.237 80.68 353.645 81.256 350.509 81.768C347.373 82.344 344.077 82.632 340.621 82.632C334.349 82.632 329.165 81.672 325.069 79.752C321.037 77.832 317.997 75.08 315.949 71.496C313.965 67.912 312.973 63.688 312.973 58.824V42.12H302.029ZM363.291 25.992H385.755L389.019 45.48V81H367.035V44.808L363.291 25.992ZM414.075 24.936V43.656C412.027 43.272 410.139 43.016 408.411 42.888C406.747 42.696 405.211 42.6 403.803 42.6C401.179 42.6 398.747 43.112 396.507 44.136C394.267 45.096 392.443 46.792 391.035 49.224C389.691 51.592 389.019 54.888 389.019 59.112L384.987 54.12C385.563 50.152 386.331 46.408 387.291 42.888C388.315 39.304 389.691 36.136 391.419 33.384C393.147 30.568 395.291 28.36 397.851 26.76C400.475 25.16 403.675 24.36 407.451 24.36C408.475 24.36 409.531 24.424 410.619 24.552C411.707 24.616 412.859 24.744 414.075 24.936Z" fill="white"/>
</svg>
