<svg width="20" height="20" viewBox="0 0 20 20" fill="none" xmlns="http://www.w3.org/2000/svg">
<g id="Frame">
<g id="Vector">
<path fill-rule="evenodd" clip-rule="evenodd" d="M5 1.99999C8.20217 1.64055 11.7978 1.64055 15 1.99999C16.2702 2.14274 17 3.794 17 4.99999V17C16.9998 17.1048 17.0528 17.9085 17 18C16.9471 18.0915 17.0922 17.9449 17 18C16.9078 18.055 16.1083 17.9953 16 18C15.8917 18.0047 16.097 18.0468 16 18L10 15L4 18C3.90291 18.0469 4.10839 18.0048 4 18C3.8916 17.9952 3.09225 18.0552 3 18C2.90775 17.9447 3.05273 18.0917 3 18C2.94726 17.9083 2.99986 17.1049 3 17V4.99999C3 3.794 3.72981 2.14274 5 1.99999Z" fill="#171923"/>
</g>
</g>
</svg>
