<svg width="15" height="16" viewBox="0 0 15 16" fill="none" xmlns="http://www.w3.org/2000/svg">
<path d="M14.9999 0.75C14.9999 0.335786 14.6641 -1.46807e-08 14.2499 -3.27865e-08L1.24993 -6.01035e-07C0.835718 -6.1914e-07 0.499931 0.335786 0.499931 0.749999C0.499931 1.16421 0.835718 1.5 1.24993 1.5L14.2499 1.5C14.4497 1.50272 14.642 1.42457 14.7833 1.28333C14.9245 1.14208 15.0026 0.949733 14.9999 0.75Z" fill="white"/>
<path d="M14.9999 7.75C14.9999 7.33579 14.6641 7 14.2499 7L1.24993 7C0.835718 7 0.499931 7.33579 0.499931 7.75C0.499931 8.16421 0.835718 8.5 1.24993 8.5L14.2499 8.5C14.4497 8.50272 14.642 8.42457 14.7833 8.28333C14.9245 8.14208 15.0026 7.94973 14.9999 7.75Z" fill="white"/>
<path d="M14.9999 14.75C14.9999 14.3358 14.6641 14 14.2499 14L1.24993 14C0.835718 14 0.499931 14.3358 0.499931 14.75C0.499931 15.1642 0.835717 15.5 1.24993 15.5L14.2499 15.5C14.4497 15.5027 14.642 15.4246 14.7833 15.2833C14.9245 15.1421 15.0026 14.9497 14.9999 14.75Z" fill="white"/>
</svg>
