<svg width="32" height="32" viewBox="0 0 32 32" fill="none" xmlns="http://www.w3.org/2000/svg">
<path d="M30.9435 3.16987C31.5271 2.58629 31.5271 1.6401 30.9435 1.05655V1.05655C30.3599 0.473025 29.4138 0.473045 28.8302 1.05659L16.0001 13.8867L3.16996 1.05659C2.58642 0.473045 1.64031 0.473024 1.05673 1.05655V1.05655C0.473123 1.6401 0.473102 2.58629 1.05669 3.16987L13.8868 16L1.05669 28.8301C0.473102 29.4137 0.473124 30.3599 1.05673 30.9435V30.9435C1.64031 31.527 2.58642 31.527 3.16996 30.9434L16.0001 18.1133L28.8302 30.9434C29.4138 31.527 30.3599 31.527 30.9435 30.9435V30.9435C31.5271 30.3599 31.5271 29.4137 30.9435 28.8301L18.1134 16L30.9435 3.16987Z" fill="black"/>
</svg>
