<svg width="32" height="32" viewBox="0 0 32 32" fill="none" xmlns="http://www.w3.org/2000/svg">
<path d="M31.0645 0.953444C30.4704 0.343824 29.6553 0 28.8041 0C27.9528 0 27.1377 0.343824 26.5436 0.953444L16.009 11.4871L5.47444 0.953444C4.21409 -0.220862 2.25005 -0.186211 1.03191 1.03182C-0.186227 2.24985 -0.22088 4.21372 0.953529 5.47396L11.4028 16.0076L0.953529 26.5413C0.343855 27.1353 0 27.9504 0 28.8015C0 29.6527 0.343855 30.4678 0.953529 31.0618C1.55797 31.6541 2.36775 31.9902 3.21399 32C4.05845 31.9816 4.8652 31.6468 5.47444 31.0618L16.009 20.5281L26.5436 31.0618C27.148 31.6541 27.9578 31.9902 28.8041 32C29.6485 31.9816 30.4553 31.6468 31.0645 31.0618C32.3118 29.813 32.3118 27.79 31.0645 26.5413L20.5299 16.0076L31.0645 5.47396C32.3118 4.2252 32.3118 2.2022 31.0645 0.953444Z" fill="black"/>
</svg>
