<svg width="128" height="128" viewBox="0 0 128 128" fill="none" xmlns="http://www.w3.org/2000/svg">
<g clip-path="url(#clip0_4_2)">
<rect width="128" height="128" rx="32" fill="#171923"/>
<path d="M12.2742 37.576H32.4262L35.8582 58.432V88H15.7062V55.352L12.2742 37.576ZM52.8422 36.08C57.5356 36.08 61.5249 37.048 64.8102 38.984C68.0956 40.92 70.5889 43.6773 72.2902 47.256C74.0502 50.776 74.9302 54.912 74.9302 59.664V88H54.7782V62.568C54.7782 59.2827 53.9862 56.76 52.4022 55C50.8769 53.24 48.6769 52.36 45.8022 52.36C43.7489 52.36 41.9596 52.8293 40.4342 53.768C38.9676 54.7067 37.8236 56.0267 37.0022 57.728C36.2396 59.4293 35.8582 61.4827 35.8582 63.888L29.7862 60.72C30.5489 55.264 32.0156 50.7173 34.1862 47.08C36.4156 43.4427 39.1436 40.7147 42.3702 38.896C45.5969 37.0187 49.0876 36.08 52.8422 36.08ZM91.8262 36.08C96.5196 36.08 100.509 37.048 103.794 38.984C107.138 40.92 109.661 43.6773 111.362 47.256C113.122 50.776 114.002 54.912 114.002 59.664V88H93.8502V62.568C93.8502 59.2827 93.0582 56.76 91.4742 55C89.9489 53.24 87.7489 52.36 84.8742 52.36C82.8209 52.36 81.0316 52.8293 79.5062 53.768C78.0396 54.7067 76.8956 56.0267 76.0742 57.728C75.3116 59.4293 74.9302 61.4827 74.9302 63.888L68.8582 60.72C69.6209 55.264 71.0876 50.7173 73.2582 47.08C75.4876 43.4427 78.1862 40.7147 81.3542 38.896C84.5809 37.0187 88.0716 36.08 91.8262 36.08Z" fill="white"/>
</g>
<defs>
<clipPath id="clip0_4_2">
<rect width="128" height="128" fill="white"/>
</clipPath>
</defs>
</svg>
