<svg width="21" height="21" viewBox="0 0 21 21" fill="none" xmlns="http://www.w3.org/2000/svg">
<g id="Frame" clip-path="url(#clip0_2_562)">
<path id="Vector" d="M13.7531 9.45454C13.7531 10.1176 13.2219 9.9857 12.7531 10.4545C12.2842 10.9234 12.4161 11.4545 11.7531 11.4545C11.09 11.4545 10.2219 10.9234 9.75308 10.4545C9.28424 9.9857 8.75308 10.1176 8.75308 9.45454C8.75308 8.7915 9.28424 7.92339 9.75308 7.45454C10.2219 6.9857 11.09 6.45454 11.7531 6.45454C12.4161 6.45454 12.2842 6.9857 12.7531 7.45454C13.2219 7.92339 13.7531 8.7915 13.7531 9.45454Z" stroke="#655F5F" stroke-width="1.5" stroke-linecap="round" stroke-linejoin="round"/>
<path id="Vector_2" d="M17.7531 9.45454C17.7531 15.5491 11.7531 19.4545 11.7531 19.4545C11.7531 19.4545 4.75308 15.5491 4.75308 9.45454C4.75308 7.75716 5.5341 6.65478 6.75308 5.45454C7.97207 4.25431 10.0292 3.45454 11.7531 3.45454C13.477 3.45454 14.5341 4.25431 15.7531 5.45454C16.9721 6.65478 17.7531 7.75716 17.7531 9.45454Z" stroke="#655F5F" stroke-width="1.5" stroke-linecap="round" stroke-linejoin="round"/>
</g>
<defs>
<clipPath id="clip0_2_562">
<rect width="20" height="20" fill="white" transform="translate(0.753082 0.454544)"/>
</clipPath>
</defs>
</svg>
