<svg width="18" height="18" viewBox="0 0 18 18" fill="none" xmlns="http://www.w3.org/2000/svg">
<path d="M17.44 0.46C17.3213 0.183638 17.0508 0.00328605 16.75 0H11.75C11.3358 1.23445e-08 11 0.335786 11 0.75C11 1.16421 11.3358 1.5 11.75 1.5H14.94L9.22 7.22C8.92755 7.51282 8.92755 7.98718 9.22 8.28C9.51282 8.57245 9.98719 8.57245 10.28 8.28L16 2.56V5.75C16 6.16421 16.3358 6.5 16.75 6.5C17.1642 6.5 17.5 6.16421 17.5 5.75V0.75C17.4995 0.650306 17.4791 0.551718 17.44 0.46Z" fill="black"/>
<path d="M14.75 8C14.338 8.00539 14.0054 8.33804 14 8.75V12.75C13.9945 14.5426 12.5426 15.9945 10.75 16H4.75C2.95735 15.9945 1.50549 14.5426 1.5 12.75V6.75C1.50549 4.95735 2.95735 3.50549 4.75 3.5H8.75C9.16421 3.5 9.5 3.16421 9.5 2.75C9.5 2.33579 9.16421 2 8.75 2H4.75C2.12665 2 0 4.12665 0 6.75V12.75C0 15.3734 2.12665 17.5 4.75 17.5H10.75C13.3734 17.5 15.5 15.3734 15.5 12.75V8.75C15.4946 8.33804 15.162 8.00539 14.75 8Z" fill="black"/>
</svg>
